<svg width="24" height="24" viewBox="0 0 24 24" fill="none" xmlns="http://www.w3.org/2000/svg">
<g id="icons / icon 24 / ic_attantion_24">
<path id="Color" fill-rule="evenodd" clip-rule="evenodd" d="M12 22C6.47715 22 2 17.5228 2 12C2 6.47715 6.47715 2 12 2C17.5228 2 22 6.47715 22 12C22 17.5228 17.5228 22 12 22ZM0 12C0 5.37258 5.37258 0 12 0C18.6274 0 24 5.37258 24 12C24 18.6274 18.6274 24 12 24C5.37258 24 0 18.6274 0 12ZM12.0098 17C12.562 17 13.0098 16.5523 13.0098 16C13.0098 15.4477 12.562 15 12.0098 15H11.9998C11.4475 15 10.9998 15.4477 10.9998 16C10.9998 16.5523 11.4475 17 11.9998 17H12.0098ZM11.0098 12.5C11.0098 13.0523 11.4575 13.5 12.0098 13.5C12.562 13.5 13.0098 13.0523 13.0098 12.5V7C13.0098 6.44771 12.562 6 12.0098 6C11.4575 6 11.0098 6.44771 11.0098 7L11.0098 12.5Z" fill="white"/>
</g>
</svg>
