<svg width="24" height="24" viewBox="0 0 24 24" fill="none" xmlns="http://www.w3.org/2000/svg">
<g id="icons / icon 24 / ic_warning_24">
<path id="Color" fill-rule="evenodd" clip-rule="evenodd" d="M13.5627 2.40192L19.6257 5.90238C20.5539 6.43828 21.1257 7.42867 21.1257 8.50046V15.5014C21.1257 16.5732 20.5539 17.5636 19.6257 18.0995L13.5627 21.5999C12.6345 22.1358 11.4909 22.1358 10.5627 21.5999L4.49976 18.0995C3.57155 17.5636 2.99976 16.5732 2.99976 15.5014V8.50046C2.99976 7.42867 3.57155 6.43828 4.49976 5.90239L10.5627 2.40192C11.4909 1.86603 12.6345 1.86603 13.5627 2.40192ZM9.56273 0.669874C11.1097 -0.22329 13.0157 -0.223292 14.5627 0.669872L20.6257 4.17033C22.1727 5.0635 23.1257 6.71413 23.1257 8.50046V15.5014C23.1257 17.2877 22.1727 18.9383 20.6257 19.8315L14.5627 23.332C13.0157 24.2251 11.1097 24.2251 9.56273 23.332L3.49976 19.8315C1.95275 18.9383 0.999756 17.2877 0.999756 15.5014V8.50046C0.999756 6.71414 1.95275 5.0635 3.49976 4.17033L9.56273 0.669874ZM12.0101 17.0001C12.5624 17.0001 13.0101 16.5524 13.0101 16.0001C13.0101 15.4478 12.5624 15.0001 12.0101 15.0001H12.0001C11.4479 15.0001 11.0001 15.4478 11.0001 16.0001C11.0001 16.5524 11.4479 17.0001 12.0001 17.0001H12.0101ZM11.0101 12.5001C11.0101 13.0524 11.4579 13.5001 12.0101 13.5001C12.5624 13.5001 13.0101 13.0524 13.0101 12.5001V7.00007C13.0101 6.44779 12.5624 6.00007 12.0101 6.00007C11.4579 6.00007 11.0101 6.44779 11.0101 7.00007L11.0101 12.5001Z" fill="white"/>
</g>
</svg>
